<?xml version="1.0" encoding="UTF-8" standalone="no"?>
<!-- Created with Inkscape (http://www.inkscape.org/) -->
<svg xmlns:dc="http://purl.org/dc/elements/1.1/" xmlns:cc="http://creativecommons.org/ns#" xmlns:rdf="http://www.w3.org/1999/02/22-rdf-syntax-ns#" xmlns:svg="http://www.w3.org/2000/svg" xmlns="http://www.w3.org/2000/svg" xmlns:xlink="http://www.w3.org/1999/xlink" xmlns:sodipodi="http://sodipodi.sourceforge.net/DTD/sodipodi-0.dtd" xmlns:inkscape="http://www.inkscape.org/namespaces/inkscape" id="svg1916" sodipodi:version="0.32" inkscape:version="0.48.5 r10040" width="2979.9211" height="4212.9922" sodipodi:docname="gentoo-abducted_A0_arches.svg" inkscape:export-filename="/home/peach/works/Gentoo/Posters/gentoo-abucted_A0-72dpi.png" inkscape:export-xdpi="72.000000" inkscape:export-ydpi="72.000000" version="1.1">
  <title id="title3117">Gentoo Abducted (Poster)</title>
  <defs id="defs1918">
    <linearGradient id="linearGradient3613">
      <stop style="stop-color:#100049;stop-opacity:1.0000000;" offset="0.0000000" id="stop3614"/>
      <stop style="stop-color:#090029;stop-opacity:1.0000000;" offset="1.0000000" id="stop3616"/>
    </linearGradient>
    <linearGradient id="linearGradient3591">
      <stop style="stop-color:#000000;stop-opacity:1.0000000;" offset="0.0000000" id="stop3592"/>
      <stop style="stop-color:#000000;stop-opacity:0.49803922;" offset="0.50000000" id="stop3596"/>
      <stop style="stop-color:#ffffff;stop-opacity:0.0000000;" offset="1.0000000" id="stop3593"/>
    </linearGradient>
    <linearGradient id="linearGradient3587">
      <stop style="stop-color:#ffffff;stop-opacity:1.0000000;" offset="0.0000000" id="stop3588"/>
      <stop style="stop-color:#ffffff;stop-opacity:1.0000000;" offset="0.50000000" id="stop3595"/>
      <stop style="stop-color:#ffffff;stop-opacity:0.0000000;" offset="1.0000000" id="stop3589"/>
    </linearGradient>
    <linearGradient id="linearGradient2624">
      <stop style="stop-color:#ffffff;stop-opacity:0.0000000;" offset="0.0000000" id="stop2625"/>
      <stop style="stop-color:#ffffff;stop-opacity:1.0000000;" offset="1.0000000" id="stop2626"/>
    </linearGradient>
    <linearGradient id="linearGradient4049">
      <stop style="stop-color:#000000;stop-opacity:0.45882353;" offset="0.0000000" id="stop4050"/>
      <stop style="stop-color:#76768d;stop-opacity:1.0000000;" offset="1.0000000" id="stop4051"/>
    </linearGradient>
    <linearGradient id="linearGradient2797">
      <stop style="stop-color:#000000;stop-opacity:1.0000000;" offset="0.0000000" id="stop2798"/>
      <stop style="stop-color:#66667d;stop-opacity:1.0000000;" offset="1.0000000" id="stop2799"/>
    </linearGradient>
    <linearGradient id="linearGradient2791">
      <stop style="stop-color:#ffffff;stop-opacity:1.0000000;" offset="0.0000000" id="stop2792"/>
      <stop style="stop-color:#2e2e46;stop-opacity:1.0000000;" offset="1.0000000" id="stop2793"/>
    </linearGradient>
    <linearGradient id="linearGradient1702">
      <stop style="stop-color:#100049;stop-opacity:1.0000000;" offset="0.0000000" id="stop1704"/>
      <stop style="stop-color:#090029;stop-opacity:1.0000000;" offset="1.0000000" id="stop1706"/>
    </linearGradient>
    <linearGradient id="linearGradient1694">
      <stop style="stop-color:#000000;stop-opacity:1.0000000;" offset="0.0000000" id="stop1696"/>
      <stop style="stop-color:#000000;stop-opacity:0.49803922;" offset="0.50000000" id="stop1698"/>
      <stop style="stop-color:#ffffff;stop-opacity:0.0000000;" offset="1.0000000" id="stop1700"/>
    </linearGradient>
    <linearGradient id="linearGradient1686">
      <stop style="stop-color:#ffffff;stop-opacity:1.0000000;" offset="0.0000000" id="stop1688"/>
      <stop style="stop-color:#ffffff;stop-opacity:1.0000000;" offset="0.50000000" id="stop1690"/>
      <stop style="stop-color:#ffffff;stop-opacity:0.0000000;" offset="1.0000000" id="stop1692"/>
    </linearGradient>
    <linearGradient id="linearGradient1680">
      <stop style="stop-color:#ffffff;stop-opacity:0.0000000;" offset="0.0000000" id="stop1682"/>
      <stop style="stop-color:#ffffff;stop-opacity:1.0000000;" offset="1.0000000" id="stop1684"/>
    </linearGradient>
    <linearGradient id="linearGradient1674">
      <stop style="stop-color:#000000;stop-opacity:0.45882353;" offset="0.0000000" id="stop1676"/>
      <stop style="stop-color:#76768d;stop-opacity:1.0000000;" offset="1.0000000" id="stop1678"/>
    </linearGradient>
    <linearGradient id="linearGradient1668">
      <stop style="stop-color:#000000;stop-opacity:1.0000000;" offset="0.0000000" id="stop1670"/>
      <stop style="stop-color:#66667d;stop-opacity:1.0000000;" offset="1.0000000" id="stop1672"/>
    </linearGradient>
    <linearGradient id="linearGradient1662">
      <stop style="stop-color:#ffffff;stop-opacity:1.0000000;" offset="0.0000000" id="stop1664"/>
      <stop style="stop-color:#2e2e46;stop-opacity:1.0000000;" offset="1.0000000" id="stop1666"/>
    </linearGradient>
    <linearGradient inkscape:collect="always" xlink:href="#linearGradient3613" id="linearGradient6916" x1="1646.5459" y1="3097.6098" x2="1646.5459" y2="121.31827" gradientTransform="matrix(0.95626298,0,0,1.0473998,0,-5.1891122)" gradientUnits="userSpaceOnUse"/>
    <linearGradient inkscape:collect="always" xlink:href="#linearGradient2624" id="linearGradient6918" x1="1287.9404" y1="3498.5288" x2="1287.9404" y2="2267.809" gradientTransform="scale(1.0187321,0.98161235)" gradientUnits="userSpaceOnUse"/>
    <radialGradient inkscape:collect="always" xlink:href="#linearGradient2791" id="radialGradient6920" cx="280.50015" cy="369.40024" fx="280.50015" fy="366.0856" r="303.34284" gradientTransform="scale(1.0126795,0.98747929)" gradientUnits="userSpaceOnUse"/>
    <radialGradient inkscape:collect="always" xlink:href="#linearGradient2791" id="radialGradient6922" cx="402.91514" cy="273.53453" fx="402.91515" fy="273.53453" r="77.791385" gradientTransform="scale(1.0948953,0.91332936)" gradientUnits="userSpaceOnUse"/>
    <radialGradient inkscape:collect="always" xlink:href="#linearGradient2797" id="radialGradient6924" cx="363.31471" cy="343.67726" fx="362.55895" fy="342.73846" r="35.682201" gradientTransform="scale(1.1116231,0.89958546)" gradientUnits="userSpaceOnUse"/>
    <linearGradient inkscape:collect="always" xlink:href="#linearGradient4049" id="linearGradient6926" x1="192.5567" y1="404.65598" x2="238.16949" y2="328.49579" gradientTransform="scale(1.083205,0.9231863)" gradientUnits="userSpaceOnUse"/>
    <linearGradient inkscape:collect="always" xlink:href="#linearGradient2791" id="linearGradient6928" x1="188.64751" y1="785.09646" x2="450.44758" y2="519.51469" gradientTransform="scale(1.3482945,0.74167773)" gradientUnits="userSpaceOnUse"/>
    <linearGradient inkscape:collect="always" xlink:href="#linearGradient2791" id="linearGradient6930" x1="508.15966" y1="428.62717" x2="271.03165" y2="659.76667" gradientTransform="scale(1.2005549,0.83294815)" gradientUnits="userSpaceOnUse"/>
    <radialGradient inkscape:collect="always" xlink:href="#linearGradient3587" id="radialGradient6932" cx="365.54737" cy="13247.524" fx="365.54737" fy="13247.524" r="234.8521" gradientTransform="scale(3.8543994,0.25944379)" gradientUnits="userSpaceOnUse"/>
    <radialGradient inkscape:collect="always" xlink:href="#linearGradient3591" id="radialGradient6934" cx="363.79335" cy="13311.397" fx="363.79335" fy="13311.397" r="233.56382" gradientTransform="scale(3.8729834,0.25819889)" gradientUnits="userSpaceOnUse"/>
  </defs>
  <sodipodi:namedview id="base" pagecolor="#ffffff" bordercolor="#666666" borderopacity="1.0" inkscape:pageopacity="0.0" inkscape:pageshadow="2" inkscape:zoom="0.17374825" inkscape:cx="1489.9606" inkscape:cy="2106.4961" inkscape:window-width="1349" inkscape:window-height="918" inkscape:window-x="310" inkscape:window-y="13" showguides="true" inkscape:guide-bbox="true" inkscape:current-layer="layer2" showgrid="false" borderlayer="false" inkscape:window-maximized="0"/>
  <metadata id="metadata1919">
    <rdf:RDF>
      <cc:Work rdf:about="">
        <dc:format>image/svg+xml</dc:format>
        <dc:type rdf:resource="http://purl.org/dc/dcmitype/StillImage"/>
        <dc:title>Gentoo Abducted (Poster)</dc:title>
        <dc:creator>
          <cc:Agent>
            <dc:title>Matteo 'Peach' Pescarin</dc:title>
          </cc:Agent>
        </dc:creator>
        <dc:contributor>
          <cc:Agent>
            <dc:title>Ethan Dunham of Fonthead Design Inc. for Larry's Head</dc:title>
          </cc:Agent>
        </dc:contributor>
        <cc:license rdf:resource="http://creativecommons.org/licenses/by-sa/2.5/"/>
      </cc:Work>
      <cc:License rdf:about="http://creativecommons.org/licenses/by-sa/2.5/">
        <cc:permits rdf:resource="http://creativecommons.org/ns#Reproduction"/>
        <cc:permits rdf:resource="http://creativecommons.org/ns#Distribution"/>
        <cc:requires rdf:resource="http://creativecommons.org/ns#Notice"/>
        <cc:requires rdf:resource="http://creativecommons.org/ns#Attribution"/>
        <cc:permits rdf:resource="http://creativecommons.org/ns#DerivativeWorks"/>
        <cc:requires rdf:resource="http://creativecommons.org/ns#ShareAlike"/>
      </cc:License>
    </rdf:RDF>
  </metadata>
  <g inkscape:groupmode="layer" id="layer1" inkscape:label="everything" transform="translate(0,2.992126)">
    <rect style="fill:url(#linearGradient6916);fill-opacity:1;fill-rule:evenodd;stroke:#000000;stroke-width:0.8804512pt;stroke-linecap:butt;stroke-linejoin:miter;stroke-opacity:1" id="rect2627" width="2984.9907" height="3269.5791" x="0" y="-5.3306093"/>
    <path style="fill:#000000;fill-opacity:1;fill-rule:evenodd;stroke:#000000;stroke-width:2.98338356pt;stroke-linecap:butt;stroke-linejoin:miter;stroke-opacity:1" d="m -25.494888,3033.2481 c 24.53415593,-4.089 102.224954,-12.2668 102.224954,-12.2668 l 4.088727,-118.5808 40.889957,4.089 -4.08902,-28.6231 57.24597,-4.0891 8.17805,-98.1357 8.17805,-12.2671 16.3558,-53.1567 16.35611,0 8.17775,-57.2461 24.53415,-4.089 4.08903,57.2461 24.53376,0 4.08903,28.6229 14.31159,2.0445 0,24.5338 55.20125,-6.1332 -2.04452,-10.2226 186.049,6.1336 4.08903,171.7375 24.53385,0 20.44504,-208.5385 110.4027,-38.8454 55.20125,36.8009 0,79.7354 77.6908,2.0445 55.20154,-47.0235 110.40274,6.1336 81.7798,-181.9605 143.1145,-2.0442 -2.0445,-79.7354 49.068,-6.1335 0,87.9131 141.0702,0 87.9133,192.1827 -53.1569,18.4006 c 0,0 14.3115,61.3348 22.4895,59.2903 8.178,-2.0445 85.8688,4.089 94.0468,-4.089 8.178,-8.1778 114.4918,-22.4893 122.6698,-32.7119 8.178,-10.2223 -18.4005,-208.5385 -18.4005,-208.5385 l 30.6675,-112.4473 63.3794,6.1335 59.2904,-12.2671 18.4004,89.958 28.623,106.3138 36.8009,2.0445 14.3115,65.4238 132.8923,2.0445 6.1335,-42.9345 24.5339,-14.3116 8.178,-196.2714 44.9789,-10.2225 8.178,-269.8736 42.9344,-8.1781 2.0445,-220.8056 85.8689,-49.0677 75.6464,14.3113 12.267,267.8291 24.5339,8.178 10.2225,302.5855 47.0234,8.1781 4.089,175.8266 65.4239,24.5338 16.356,143.1147 36.8009,0 6.1335,-104.2692 49.0679,-4.089 4.089,-208.5385 12.267,2.0445 4.089,-42.9345 34.7564,0 -2.0445,-16.3561 53.1569,-8.1778 6.1335,16.3558 53.1569,57.2461 2.0445,112.4473 149.2483,18.4003 10.2224,179.9157 47.8568,170.6955 11.6158,1197.0292 -3041.901467,-18.7685 6.083028,-1191.5855 1.445748,0 0,0" id="path3636" sodipodi:nodetypes="ccccccccccccccccccccccccccccccccccccccccccccccccccccccccccccccccccccccccccccccccccccc" inkscape:connector-curvature="0"/>
    <path style="fill:#000000;fill-opacity:0.33333333;fill-rule:evenodd;stroke:none" d="m 196.28548,489.78823 c 0,0 -18.67212,23.06556 -12.08196,61.50816 6.59015,38.44259 26.36063,57.66388 26.36063,57.66388 0,0 27.459,28.00818 65.3524,30.2049 37.8934,2.19671 76.88517,-15.37704 76.88517,-15.37704 0,0 66.99996,-30.75407 101.0491,-51.07373 34.04916,-20.31966 81.27863,-52.17209 120.81959,-87.31961 39.54095,-35.14751 62.05732,-66.99994 62.05732,-66.99994 0,0 18.12294,-26.90982 19.2213,-44.48357 1.09837,-17.57377 -6.04098,-36.79506 -17.57375,-57.6639 C 626.8425,295.37855 590.04744,247.5999 541.71961,210.80484 493.39178,174.00977 434.08035,144.35406 382.45744,140.5098 c -51.62292,-3.84426 -88.96714,17.02459 -110.38515,31.85243 -21.41801,14.82787 -61.50814,49.97539 -74.13927,87.8688 -12.68713,38.06138 -7.13935,65.9016 23.61473,91.16387 30.75408,25.26228 72.49173,45.03275 72.49173,45.03275 l -97.754,93.36058 z" id="path1541" sodipodi:nodetypes="ccccccccccccczccc" transform="matrix(1.677852,0,0,1.677852,895.8772,767.0947)" inkscape:connector-curvature="0"/>
    <path style="fill:#2e2e46;fill-opacity:1;fill-rule:evenodd;stroke:#000000;stroke-width:2.48530459;stroke-linecap:round;stroke-linejoin:round;stroke-miterlimit:4;stroke-opacity:1" d="m 294.6529,164.95309 c -40.54515,22.32559 -70.77114,56.56075 -80.79367,77.70418 -20.59426,43.38522 -18.7116,64.43796 3.84427,91.71305 17.11978,20.70165 79.63105,53.27045 79.63105,53.27045 0,0 -53.8196,47.22947 -74.68844,66.99995 -20.86883,19.77048 -37.34424,48.32784 -26.36063,92.26223 10.98359,43.93438 45.03275,59.31142 45.03275,59.31142 0,0 44.48355,26.36065 110.38513,-2.19671 65.90159,-28.55735 114.7786,-59.31143 114.7786,-59.31143 0,0 97.20485,-66.45078 123.56548,-97.20485 26.36064,-30.75408 62.05733,-60.95898 45.58194,-110.38516 -16.4754,-49.4262 -90.06551,-115.32778 -90.06551,-115.32778 0,0 -73.33305,-56.10124 -126.15967,-69.84583 -57.23851,-14.8925 -105.55362,2.43958 -124.7513,13.01048 z" id="path919" sodipodi:nodetypes="czscccccccccsz" transform="matrix(1.677852,0,0,1.677852,895.8772,767.0947)" inkscape:connector-curvature="0"/>
    <path style="fill:url(#linearGradient6918);fill-opacity:0.75;fill-rule:evenodd;stroke:none" d="m 1273.843,1721.8996 -685.68124,1698.7254 1803.18014,0 -832.7503,-1737.4773 c -59.3463,29.2014 -108.8959,49.2109 -167.1845,56.5913 -44.3686,5.6179 -80.9605,4.3888 -117.5641,-17.8394 z" id="path2613" sodipodi:nodetypes="ccccsc" inkscape:connector-curvature="0"/>
    <path style="fill:url(#radialGradient6920);fill-opacity:0.75;fill-rule:evenodd;stroke:none" d="m 339.07223,358.53424 c 0,0 -20.86885,24.7131 -42.83604,43.93439 -21.96719,19.2213 -68.64746,64.25405 -68.64746,64.25405 0,0 -26.36064,24.71309 -24.16392,51.07373 2.19673,26.36064 16.4754,35.6967 16.4754,35.6967 0,0 35.14751,27.45899 75.7868,19.22129 40.63931,-8.2377 75.78683,-24.71309 75.78683,-24.71309 0,0 95.00812,-45.58194 144.98349,-83.47536 49.97538,-37.89341 109.83599,-93.90975 109.83599,-93.90975 0,0 17.57375,-14.27869 -4.39344,-48.32784 -21.96719,-34.04915 -84.02453,-94.45895 -103.795,-108.73762 -19.77049,-14.2787 -88.41797,-59.86062 -143.88514,-58.21308 -55.46717,1.64754 -91.71303,28.55736 -91.71303,28.55736 -11.53279,9.88523 -51.62291,39.26636 -60.95897,64.25405 -9.40505,25.17235 -4.94261,45.58193 13.18033,58.76225 18.12294,13.18033 75.7868,37.34423 75.7868,37.34423 l 28.55736,14.27869 z" id="path2165" sodipodi:nodetypes="ccccccccccccczccc" transform="matrix(1.677852,0,0,1.677852,895.8772,767.0947)" inkscape:connector-curvature="0"/>
    <path style="fill:url(#radialGradient6922);fill-opacity:0.75;fill-rule:evenodd;stroke:none" d="m 370.37548,305.81296 c 0,0 31.30326,26.90982 59.86061,24.7131 28.55736,-2.19672 30.75408,-19.77047 30.75408,-19.77047 0,0 6.59016,-23.06557 -10.43443,-41.73769 -17.02457,-18.6721 -41.73767,-32.95079 -62.05732,-32.40161 -20.31966,0.54918 -39.54096,20.31967 -38.99178,36.24588 0.54918,15.92622 20.86884,32.95079 20.86884,32.95079 z" id="path2166" sodipodi:nodetypes="ccccccc" transform="matrix(1.677852,0,0,1.677852,895.8772,767.0947)" inkscape:connector-curvature="0"/>
    <path style="fill:url(#radialGradient6924);fill-opacity:0.75;fill-rule:evenodd;stroke:none" d="m 397.28529,256.38677 c -18.12294,0.27458 -26.36871,8.44085 -24.71309,23.06555 1.64754,14.55327 33.74914,33.25934 48.32783,30.75409 15.11241,-2.59697 19.06597,-8.77014 18.12294,-20.86885 -0.90047,-11.55277 -24.16393,-33.22538 -41.73768,-32.95079 z" id="path2167" sodipodi:nodetypes="czzzz" transform="matrix(1.677852,0,0,1.677852,895.8772,767.0947)" inkscape:connector-curvature="0"/>
    <path style="fill:url(#linearGradient6926);fill-opacity:0.75;fill-rule:evenodd;stroke:none" d="m 207.81825,281.09986 c 0,0 3.29507,17.57377 25.81146,33.49998 22.51638,15.92622 88.96712,43.9344 88.96712,43.9344 0,0 -1.09837,8.2377 -9.33606,14.82786 -8.2377,6.59016 -18.67212,5.49179 -18.67212,5.49179 0,0 -55.46715,-32.40161 -70.295,-49.97538 -14.82786,-17.57375 -16.4754,-47.77865 -16.4754,-47.77865 z" id="path2168" sodipodi:nodetypes="ccccccc" transform="matrix(1.677852,0,0,1.677852,895.8772,767.0947)" inkscape:connector-curvature="0"/>
    <path style="fill:url(#linearGradient6928);fill-opacity:0.75;fill-rule:evenodd;stroke:none" d="m 202.87563,549.64884 c 0,0 27.459,32.9508 68.64748,31.30326 41.18848,-1.64754 76.88517,-10.9836 135.09824,-41.1885 58.21308,-30.20488 146.08187,-91.16386 177.9343,-119.17204 31.85243,-28.00817 46.68028,-44.48357 46.68028,-44.48357 0,0 -15.37703,35.6967 -41.73767,60.95898 -26.36063,25.26227 -91.71304,82.92616 -154.86873,117.52449 -63.15569,34.59834 -120.2704,58.21308 -150.4753,57.11471 -30.20487,-1.09835 -61.50812,-27.459 -70.295,-38.99177 -8.78687,-11.53278 -10.9836,-23.06556 -10.9836,-23.06556 z" id="path2169" sodipodi:nodetypes="cccccccccc" transform="matrix(1.677852,0,0,1.677852,895.8772,767.0947)" inkscape:connector-curvature="0"/>
    <path style="fill:url(#linearGradient6930);fill-opacity:0.75;fill-rule:evenodd;stroke:none" d="m 315.4575,562.82917 c 0,0 38.44259,-8.23772 111.48351,-48.32784 73.04093,-40.09014 112.3073,-76.06141 121.91795,-84.02452 9.61065,-7.96312 49.97536,-43.93441 60.40977,-56.56555 10.43442,-12.63113 14.27869,-20.31965 11.53279,-23.06555 -2.7459,-2.74589 -16.4754,7.68853 -16.4754,7.68853 0,0 -49.42619,45.58194 -72.49175,65.35241 -23.06556,19.77047 -87.86877,71.39338 -126.86055,93.90976 -38.99177,22.51637 -89.51632,45.03276 -89.51632,45.03276 z" id="path3421" sodipodi:nodetypes="cczcccccc" transform="matrix(1.677852,0,0,1.677852,895.8772,767.0947)" inkscape:connector-curvature="0"/>
    <path sodipodi:type="arc" style="fill:url(#radialGradient6932);fill-opacity:0.75;fill-rule:evenodd;stroke:#000000;stroke-width:1pt;stroke-linecap:butt;stroke-linejoin:miter;stroke-opacity:1" id="path3585" sodipodi:cx="1408.9656" sodipodi:cy="3436.9878" sodipodi:rx="904.58881" sodipodi:ry="60.30592" d="m 2313.5544,3436.9878 c 0,33.306 -404.9982,60.3059 -904.5888,60.3059 -499.59063,0 -904.58883,-26.9999 -904.58883,-60.3059 0,-33.306 404.9982,-60.3059 904.58883,-60.3059 499.5906,0 904.5888,26.9999 904.5888,60.3059 z" transform="translate(77.95276,0)"/>
    <path sodipodi:type="arc" style="fill:url(#radialGradient6934);fill-opacity:0.75;fill-rule:evenodd;stroke:none" id="path3590" sodipodi:cx="1408.9656" sodipodi:cy="3436.9878" sodipodi:rx="904.58881" sodipodi:ry="60.30592" d="m 2313.5544,3436.9878 c 0,33.306 -404.9982,60.3059 -904.5888,60.3059 -499.59063,0 -904.58883,-26.9999 -904.58883,-60.3059 0,-33.306 404.9982,-60.3059 904.58883,-60.3059 499.5906,0 904.5888,26.9999 904.5888,60.3059 z" transform="matrix(0.40587,0,0,0.40587,915.0621,2042.02)"/>
    <path style="fill:#000014;fill-opacity:1;fill-rule:evenodd;stroke:#000000;stroke-width:1pt;stroke-linecap:butt;stroke-linejoin:miter;stroke-opacity:1" d="m 1521.3539,2596.8166 c -5.4823,5.4824 -9.5941,9.5941 -9.5941,9.5941 0,0 -2.7412,2.7412 -9.5941,-6.8529 -6.853,-9.5941 -8.2236,-12.3353 -2.7412,-16.4471 5.4823,-4.1117 8.2235,-12.3353 12.3353,-4.1117 4.1118,8.2235 9.5941,17.8176 9.5941,17.8176 z" id="path3597" inkscape:connector-curvature="0"/>
    <path style="fill:#000014;fill-opacity:1;fill-rule:evenodd;stroke:#000000;stroke-width:1pt;stroke-linecap:butt;stroke-linejoin:miter;stroke-opacity:1" d="m 1621.4069,2561.1813 c 1.3706,10.9647 15.0765,5.4824 15.0765,5.4824 l 5.4824,-13.7059 c 0,0 1.3705,-8.2236 -6.853,-10.9648 -8.2235,-2.7411 -8.2235,-2.7411 -10.9647,2.7412 -2.7412,5.4824 -2.7412,16.4471 -2.7412,16.4471 z" id="path3599" sodipodi:nodetypes="cccccc" inkscape:connector-curvature="0"/>
    <path style="fill:#000014;fill-opacity:1;fill-rule:evenodd;stroke:#000000;stroke-width:1pt;stroke-linecap:butt;stroke-linejoin:miter;stroke-opacity:1" d="m 1626.8893,2517.3224 c 0,0 5.4823,6.853 12.3353,8.2236 6.8529,1.3706 8.2235,-1.3706 9.5941,-6.853 1.3706,-5.4823 2.7412,-21.9294 2.7412,-42.4882 0,-20.5589 1.3706,-45.2295 1.3706,-50.7118 0,-5.4824 0,-27.4118 -5.4824,-27.4118 -5.4823,0 -13.7059,2.7412 -13.7059,2.7412 0,0 -4.1117,9.5941 -4.1117,16.447 0,6.853 8.2235,26.0412 6.8529,39.7471 -1.3706,13.7059 -9.5941,60.3059 -9.5941,60.3059 z" id="path3600" inkscape:connector-curvature="0"/>
    <path style="fill:#000014;fill-opacity:1;fill-rule:evenodd;stroke:#000000;stroke-width:1pt;stroke-linecap:butt;stroke-linejoin:miter;stroke-opacity:1" d="m 1707.754,2569.4048 c -9.5941,8.2236 -19.1882,10.9647 -15.0764,17.8177 4.1117,6.8529 6.8529,12.3353 12.3353,6.8529 5.4823,-5.4823 9.5941,-2.7411 10.9647,-9.5941 1.3706,-6.8529 -8.2236,-15.0765 -8.2236,-15.0765 z" id="path3601" inkscape:connector-curvature="0"/>
    <path style="fill:#000014;fill-opacity:1;fill-rule:evenodd;stroke:#000000;stroke-width:1pt;stroke-linecap:butt;stroke-linejoin:miter;stroke-opacity:1" d="m 1433.6362,2636.5637 c -4.1118,5.4824 -10.9647,12.3353 -4.1118,17.8177 6.853,5.4823 12.3353,9.5941 19.1883,5.4823 6.8529,-4.1118 -1.3706,-15.0765 -1.3706,-15.0765 l -13.7059,-8.2235 z" id="path3603" inkscape:connector-curvature="0"/>
    <path style="fill:#000014;fill-opacity:1;fill-rule:evenodd;stroke:#000000;stroke-width:1pt;stroke-linecap:butt;stroke-linejoin:miter;stroke-opacity:1" d="m 1404.519,2626.4011 c -5.4823,6.8529 -1.3706,20.5588 -1.3706,20.5588 0,0 -20.5588,-5.4823 -35.6353,-9.5941 -15.0765,-4.1117 -60.3059,-6.8529 -60.3059,-6.8529 1.3706,-1.3706 -5.4824,-13.7059 2.7411,-16.4471 8.2236,-2.7412 15.0766,-2.7412 41.1178,0 26.0411,2.7412 53.4529,12.3353 53.4529,12.3353 z" id="path3604" sodipodi:nodetypes="ccccccc" inkscape:connector-curvature="0"/>
    <path style="fill:#000014;fill-opacity:1;fill-rule:evenodd;stroke:#000000;stroke-width:1pt;stroke-linecap:butt;stroke-linejoin:miter;stroke-opacity:1" d="m 1422.6715,2533.7695 c 0,0 6.8529,15.0765 -6.8529,20.5589 -13.7059,5.4823 -26.0412,8.2235 -28.7824,2.7411 -2.7412,-5.4823 -34.2647,-17.8176 -35.6353,-43.8588 -1.3706,-26.0412 17.8176,-49.3412 30.1529,-58.9354 12.3353,-9.5941 68.5295,-46.6 78.1236,-35.6353 9.5941,10.9647 38.3765,49.3412 26.0412,68.5295 -12.3353,19.1882 -8.2235,34.2647 -6.8529,41.1177 1.3705,6.8529 16.447,20.5588 16.447,26.0412 0,5.4823 -2.7412,13.7058 -10.9647,15.0764 -8.2235,1.3706 -16.4471,-1.3706 -16.4471,-1.3706 0,0 -9.5941,-8.2235 -12.3353,-26.0412 -2.7411,-17.8176 -9.5941,-28.7823 4.1118,-39.747 13.7059,-10.9647 16.4471,-20.5589 15.0765,-30.153 -1.3706,-9.5941 -12.3353,-38.3765 -19.1883,-38.3765 -6.8529,0 -20.5588,1.3706 -39.747,15.0765 -19.1883,13.7059 -31.5236,32.8941 -35.6354,46.6 -4.1117,13.7059 -6.8529,21.9294 1.3706,32.8942 8.2236,10.9647 19.1883,9.5941 26.0412,5.4823 6.853,-4.1118 15.0765,0 15.0765,0 z" id="path3605" inkscape:connector-curvature="0"/>
    <path style="fill:#000014;fill-opacity:1;fill-rule:evenodd;stroke:#000000;stroke-width:1pt;stroke-linecap:butt;stroke-linejoin:miter;stroke-opacity:1" d="m 1763.9482,2488.54 c 10.9647,6.853 16.447,10.9647 9.5941,16.4471 -6.8529,5.4823 -5.4824,9.5941 -13.7059,5.4823 -8.2235,-4.1117 -12.3353,-13.7058 -12.3353,-20.5588 0,-6.8529 -4.1118,-21.9294 5.4824,-31.5235 9.5941,-9.5941 37.0059,-31.5236 53.4529,-23.3 16.4471,8.2235 49.3413,45.2294 57.5648,63.0471 8.2235,17.8176 1.3705,43.8589 -15.0765,53.453 -16.4471,9.5941 -37.0059,27.4118 -52.0824,23.3 -15.0765,-4.1118 -21.9294,-23.3 -27.4118,-23.3 -5.4823,0 -16.447,15.0765 -27.4117,15.0765 -10.9648,0 -17.8177,-8.2236 -17.8177,-8.2236 0,0 2.7412,-10.9647 9.5941,-15.0765 6.853,-4.1117 20.5589,-5.4823 28.7824,-8.2235 8.2235,-2.7412 21.9294,-5.4824 24.6706,2.7412 2.7412,8.2235 1.3706,13.7059 9.5941,17.8176 8.2236,4.1118 38.3765,-5.4823 45.2294,-13.7058 6.853,-8.2236 13.706,-21.9295 8.2236,-34.2648 -5.4824,-12.3353 -31.5235,-43.8589 -47.9706,-49.3412 -16.4471,-5.4824 -31.5236,2.7412 -35.6353,9.5941 -4.1118,6.853 -2.7412,20.5588 -2.7412,20.5588 z" id="path3607" sodipodi:nodetypes="ccccccccccccccccccccc" inkscape:connector-curvature="0"/>
    <path style="fill:#000014;fill-opacity:1;fill-rule:evenodd;stroke:#000000;stroke-width:1pt;stroke-linecap:butt;stroke-linejoin:miter;stroke-opacity:1" d="m 1302.0597,3099.8228 c 0,0 -13.7059,27.4118 2.7411,35.6353 16.4471,8.2236 35.6354,5.4824 35.6354,5.4824 0,0 -13.7059,19.1882 -41.1177,8.2235 -27.4118,-10.9647 -16.4471,-32.8941 -16.4471,-32.8941 l 19.1883,-16.4471 z" id="path3608" inkscape:connector-curvature="0"/>
    <path style="fill:#000014;fill-opacity:1;fill-rule:evenodd;stroke:#000000;stroke-width:1pt;stroke-linecap:butt;stroke-linejoin:miter;stroke-opacity:1" d="m 1277.3891,3108.0464 c 0,0 -20.5589,15.7618 -12.3354,29.4677 8.2236,13.7058 28.7824,22.6146 39.7471,25.3558 10.9647,2.7412 28.7825,-2.0559 40.4325,-4.7971 -5.4824,8.2236 -48.656,21.2442 -65.1031,13.0207 -16.447,-8.2236 -30.1529,-13.7059 -30.1529,-30.153 0,-16.4471 13.7059,-24.6706 13.7059,-24.6706 l 13.7059,-8.2235 z" id="path3609" sodipodi:nodetypes="cccccccc" inkscape:connector-curvature="0"/>
    <path style="fill:#000014;fill-opacity:1;fill-rule:evenodd;stroke:#000000;stroke-width:1pt;stroke-linecap:butt;stroke-linejoin:miter;stroke-opacity:1" d="m 1530.2627,3138.1993 c 2.7412,0 28.7824,4.7971 35.6354,0 6.8529,-4.797 15.0764,-8.2235 18.5029,-15.7618 3.4265,-7.5382 4.7971,-23.9853 6.1677,-28.7823 1.3706,-4.7971 4.1117,3.4264 3.4264,12.3353 -0.6853,8.9088 3.4265,30.8382 -1.3706,34.2647 -4.797,3.4265 -20.5588,11.65 -28.7823,12.3353 -8.2236,0.6853 -13.0206,-4.1118 -20.5589,-6.8529 -7.5382,-2.7412 -13.0206,-7.5383 -13.0206,-7.5383 z" id="path3610" inkscape:connector-curvature="0"/>
    <path style="fill:#000014;fill-opacity:1;fill-rule:evenodd;stroke:#000000;stroke-width:1pt;stroke-linecap:butt;stroke-linejoin:miter;stroke-opacity:1" d="m 1541.2275,3156.017 c 0,0 3.4264,11.65 18.5029,12.3353 15.0765,0.6853 31.5236,3.4264 39.0618,0.6853 7.5382,-2.7412 16.4471,-10.2794 19.1882,-18.503 2.7412,-8.2235 0.6853,-31.5235 -2.0559,-38.3764 -2.7411,-6.853 -4.797,-4.7971 -10.2794,-13.706 -2.8733,-4.6691 -1.1807,19.1006 0,29.4677 0.8718,7.6549 -1.3706,19.1882 -9.5941,26.0412 -11.2544,9.3787 -26.7265,6.8529 -34.2647,6.8529 -7.5382,0 -20.5588,-4.797 -20.5588,-4.797 z" id="path3611" sodipodi:nodetypes="cccccssscc" inkscape:connector-curvature="0"/>
    <path sodipodi:type="star" style="fill:#ffff00;fill-opacity:0.75;fill-rule:evenodd;stroke:#000000;stroke-width:1pt;stroke-linecap:butt;stroke-linejoin:miter;stroke-opacity:1" id="path3637" sodipodi:sides="5" sodipodi:cx="302.3757" sodipodi:cy="674.5304" sodipodi:r1="49.035686" sodipodi:r2="24.517843" sodipodi:arg1="1.8925469" sodipodi:arg2="2.5208654" inkscape:flatsided="false" inkscape:rounded="0" d="m 286.86926,721.04973 -4.43774,-32.2591 -29.09009,-14.63248 29.30889,-14.18914 4.92698,-32.18801 22.55162,23.48973 32.13514,-5.26081 -15.37122,28.7066 14.93362,28.93665 -32.05156,-5.74808 z" transform="translate(0,69.77901)" inkscape:randomized="0"/>
    <path sodipodi:type="star" style="fill:#ffff00;fill-opacity:0.75;fill-rule:evenodd;stroke:#000000;stroke-width:1pt;stroke-linecap:butt;stroke-linejoin:miter;stroke-opacity:1" id="path3638" sodipodi:sides="5" sodipodi:cx="945.89319" sodipodi:cy="286.86923" sodipodi:r1="82.417892" sodipodi:r2="41.208942" sodipodi:arg1="2.4227627" sodipodi:arg2="3.0510812" inkscape:flatsided="false" inkscape:rounded="0" d="m 883.8674,341.14179 20.98553,-50.54777 -29.74303,-45.94367 54.55866,4.3383 34.50393,-42.48468 12.73359,53.22898 51.06762,19.6867 -46.68887,28.55902 -2.94239,54.65173 -41.5889,-35.57854 z" inkscape:randomized="0"/>
    <path sodipodi:type="star" style="fill:#ffff00;fill-opacity:0.75;fill-rule:evenodd;stroke:#000000;stroke-width:1pt;stroke-linecap:butt;stroke-linejoin:miter;stroke-opacity:1" id="path3639" sodipodi:sides="5" sodipodi:cx="2760.1472" sodipodi:cy="441.93369" sodipodi:r1="62.50848" sodipodi:r2="31.25424" sodipodi:arg1="2.0899424" sodipodi:arg2="2.718261" inkscape:flatsided="false" inkscape:rounded="0" d="m 2729.1343,496.20625 2.5176,-41.43331 -32.7045,-25.56312 40.1834,-10.40921 14.2058,-39.00327 22.3171,35.00007 41.4841,1.45777 -26.3907,32.04044 11.4329,39.90422 -38.6275,-15.19798 z" inkscape:randomized="0"/>
    <path sodipodi:type="star" style="fill:#ffff00;fill-opacity:0.75;fill-rule:evenodd;stroke:#000000;stroke-width:1pt;stroke-linecap:butt;stroke-linejoin:miter;stroke-opacity:1" id="path3640" sodipodi:sides="5" sodipodi:cx="2139.8894" sodipodi:cy="302.3757" sodipodi:r1="49.644848" sodipodi:r2="24.822424" sodipodi:arg1="2.2455373" sodipodi:arg2="2.8738558" inkscape:flatsided="false" inkscape:rounded="0" d="m 2108.8765,341.14181 7.0749,-32.19935 -22.5143,-24.08238 32.8097,-3.22158 15.9464,-28.85416 13.2026,30.20831 32.3697,6.24953 -24.65,21.89133 4.0592,32.71659 -28.4372,-16.67872 z" inkscape:randomized="0"/>
    <path sodipodi:type="star" style="fill:#ffff00;fill-opacity:0.75;fill-rule:evenodd;stroke:#000000;stroke-width:1pt;stroke-linecap:butt;stroke-linejoin:miter;stroke-opacity:1" id="path3641" sodipodi:sides="5" sodipodi:cx="2341.4734" sodipodi:cy="666.77716" sodipodi:r1="76.36039" sodipodi:r2="38.180195" sodipodi:arg1="1.152572" sodipodi:arg2="1.7808905" inkscape:flatsided="false" inkscape:rounded="0" d="m 2372.4863,736.55617 -38.9755,-32.43835 -48.8177,13.71725 18.8066,-47.09185 -28.1313,-42.18954 50.5985,3.33398 31.4316,-39.79182 12.465,49.15236 47.5572,17.59685 -42.8948,27.04385 z" transform="translate(-759.8158,-426.4272)" inkscape:randomized="0"/>
    <path sodipodi:type="star" style="fill:#ffff00;fill-opacity:0.75;fill-rule:evenodd;stroke:#000000;stroke-width:1pt;stroke-linecap:butt;stroke-linejoin:miter;stroke-opacity:1" id="path3642" sodipodi:sides="5" sodipodi:cx="806.33514" sodipodi:cy="969.15283" sodipodi:r1="54.823563" sodipodi:r2="27.411781" sodipodi:arg1="2.3561945" sodipodi:arg2="2.984513" inkscape:flatsided="false" inkscape:rounded="0" d="m 767.56903,1007.9189 11.69182,-34.47792 -21.77386,-29.17753 36.40347,0.46531 21.02098,-29.72452 10.80676,34.76554 34.76554,10.80676 -29.72452,21.02098 0.4653,36.40348 -29.17752,-21.77387 z" transform="translate(-15.50645,-193.8306)" inkscape:randomized="0"/>
    <path sodipodi:type="star" style="fill:#ffff00;fill-opacity:0.75;fill-rule:evenodd;stroke:#000000;stroke-width:1pt;stroke-linecap:butt;stroke-linejoin:miter;stroke-opacity:1" id="path3643" sodipodi:sides="5" sodipodi:cx="178.32413" sodipodi:cy="209.33702" sodipodi:r1="62.50848" sodipodi:r2="31.25424" sodipodi:arg1="2.6224465" sodipodi:arg2="3.2507651" inkscape:flatsided="false" inkscape:rounded="0" d="m 124.05157,240.34991 23.20439,-34.41822 -15.19799,-38.62743 39.90422,11.43287 32.04044,-26.39068 1.45778,41.48413 35.00006,22.31709 -39.00327,14.20573 -10.4092,40.1834 -25.56313,-32.7045 z" inkscape:randomized="0"/>
    <g id="g1767">
      <path id="path2650" style="fill:#000000;fill-opacity:1;fill-rule:evenodd;stroke:#000000;stroke-width:1pt;stroke-linecap:butt;stroke-linejoin:miter;stroke-opacity:1" d="m 1264.492,2822.9638 c -5.4823,24.6706 -10.9647,71.2707 -23.3,84.9765 -12.3353,13.7059 -26.0412,50.7118 -54.8235,41.1177 -28.7824,-9.5941 -53.453,-15.0765 -67.1589,-42.4882 -13.7059,-27.4118 -6.853,-35.6354 -6.853,-35.6354 0,0 12.3353,-1.3706 9.5942,-9.5941 -2.7412,-8.2235 -5.4824,-19.1882 -5.4824,-26.0412 0,-6.8529 -6.8529,-16.447 -6.8529,-16.447 l -1.3706,26.0411 -4.1118,-19.1882 c 0,0 -4.1118,6.8529 -8.2235,17.8177 -4.1118,10.9647 2.7411,27.4117 2.7411,27.4117 l 8.2236,2.7412 c 0,0 0,23.3 6.8529,37.0059 6.853,13.7059 13.7059,20.5589 26.0412,28.7824 12.3353,8.2235 37.0059,19.1882 52.0824,20.5588 15.0765,1.3706 32.8941,-5.4823 38.3765,-17.8176 5.4824,-12.3353 17.8177,-23.3 17.8177,-23.3" sodipodi:nodetypes="cccccccccccccccccc" inkscape:connector-curvature="0"/>
      <g id="g2339" transform="matrix(1.409592,0,0,1.409592,1201.605,2558.935)">
        <path id="path1715" style="fill:#000000;fill-opacity:1;fill-rule:evenodd;stroke:#000000;stroke-width:0.70850501pt;stroke-linecap:butt;stroke-linejoin:miter;stroke-opacity:1" d="m 363.94514,170.68073 c 0,0 -48.55342,18.45025 -80.59874,25.24779 -32.04526,6.79747 -71.85906,-3.88431 -82.54084,-3.88431 -10.68177,0 -13.595,-16.50817 -20.39247,-12.62386 -6.79747,3.88424 -16.50817,3.88424 -20.39248,21.36348 -3.88423,17.47925 -12.02718,51.44963 -16.50816,60.20628 -0.53127,10.07559 4.85538,7.76861 4.85538,7.76861 0,0 0,6.79747 3.88424,18.45025 3.88431,11.65286 14.56608,24.27679 20.39247,28.16102 5.82639,3.88431 -2.91323,6.79754 -3.8843,10.68178 -0.97108,3.88431 3.8843,15.53709 8.73962,18.45032 4.85538,2.91323 11.65285,10.68177 14.56608,16.50816 2.91316,5.82647 9.7107,23.30571 10.68178,28.16102 0.971,4.85539 -1.94216,20.39248 -1.94216,20.39248 0,0 5.82639,0.97108 9.7107,0.97108 3.88424,0 11.65278,0 11.65278,0 l -1.94208,-7.76855 4.85531,7.76855 4.85532,-0.97108 -6.79747,-19.4214 c 0,0 -4.85531,-22.33463 -8.73962,-32.04526 -1.94208,-4.85538 -1.09237,-2.30632 -1.30486,-10.3176 1.30486,-0.84971 7.61679,-5.21956 11.5011,-9.10379 3.8843,-3.88431 9.71069,-13.10947 9.99551,-13.63901 0.28475,-0.52953 49.03691,1.53044 54.53009,1.53044 5.49325,0 11.67305,-2.74659 18.53959,-4.80649 6.86648,-2.05998 10.98636,-5.49318 13.73296,-6.86648 -1.3733,8.23977 -1.3733,8.23977 -0.68669,17.85284 0.68669,9.61307 3.43328,21.28611 4.80657,26.09268 1.3733,4.80657 13.04634,35.70582 13.04634,35.70582 l 0.68668,15.10624 c 0,0 10.98637,3.43328 15.10632,4.11989 4.11989,0.68668 13.04634,-1.37329 13.04634,-1.37329 l 0,-6.86648 c 0,0 5.49318,-0.68661 8.92639,-0.68661 3.43327,0 4.11995,-6.17987 4.11995,-6.17987 0,0 -2.74666,-15.10632 -3.43327,-19.91281 -0.68668,-4.80657 2.05998,-21.28619 5.49325,-31.58594 3.4332,-10.29975 10.29968,-27.46597 11.67298,-41.19892 1.37336,-13.73303 -4.8065,-46.69218 -4.8065,-46.69218 l -7.55316,-7.55316" sodipodi:nodetypes="ccccccccccccccccccccccccccccccccccccccccc" transform="translate(-115,-13.75)" inkscape:connector-curvature="0"/>
        <path style="fill:#ffffff;fill-opacity:1;fill-rule:evenodd;stroke:#000000;stroke-width:0.70850501pt;stroke-linecap:butt;stroke-linejoin:miter;stroke-opacity:1" d="m 216.82819,335.76247 c -5.82646,4.36984 -4.61258,3.27733 -6.37265,9.7107 -1.76007,6.43336 0.78899,16.02269 2.48834,21.84909 3.39877,11.65278 9.7107,29.61756 6.79754,30.58864 -2.91323,0.97107 -6.79754,1.45661 -10.68177,1.94215 -3.88431,0.48554 -2.91323,-4.36985 -2.91323,-8.25408 0,-3.88431 -3.88424,-21.84909 -7.76855,-28.64656 -3.88431,-6.79747 -4.36985,-18.45032 -10.19624,-21.84909 -5.82639,-3.3987 -12.62386,-5.34085 -13.10939,-8.25408 -0.48554,-2.91316 1.94208,-7.28301 4.36977,-10.68171 2.42769,-3.39877 7.76855,-1.94215 7.76855,-1.94215 0,0 0,-5.34093 -1.45662,-9.22516 -1.45654,-3.88431 -5.34085,0 -12.62386,-13.10947 -7.283,-13.1094 -12.13839,-29.61756 -12.13839,-37.87165 0,-8.25415 9.22516,-24.27678 9.7107,-31.55979 0.48554,-7.283 3.88431,8.73963 10.19624,10.68178 6.31193,1.94215 -7.76855,5.82639 -5.34086,18.45032 2.42763,12.62386 11.16725,26.21886 21.36349,28.16102 10.19623,1.94208 20.39247,2.91316 26.21886,-1.94216 5.82646,-4.85538 7.28301,-7.283 7.28301,-7.283 0,0 6.312,5.34085 3.39877,13.1094 -2.4277,26.7044 -11.16725,41.75595 -16.99371,46.1258 z" id="path1717" sodipodi:nodetypes="cszccccccccccccccccccc" transform="translate(-115,-13.75)" inkscape:connector-curvature="0"/>
        <path id="path1719" style="fill:#ffffff;fill-opacity:1;fill-rule:evenodd;stroke:#000000;stroke-width:0.70850501pt;stroke-linecap:butt;stroke-linejoin:miter;stroke-opacity:1" d="m 237.62366,315.58077 c 0,0 4.8065,0 4.8065,0 0,0 54.93202,4.11989 58.36523,2.74659 3.43327,-1.37329 15.10631,-6.86647 17.8529,-8.92645 2.7466,-2.05991 -4.80656,-20.5995 -4.80656,-26.77929 0,-6.17987 0,-24.03278 0,-24.03278 0,0 4.11995,-4.11988 6.17986,-0.68661 2.05998,3.4332 4.11989,8.92638 4.11989,8.92638 -2.74659,17.85291 2.05997,36.39243 3.43327,44.63228 1.37329,8.23977 2.74659,39.82563 4.11988,46.69218 1.3733,6.86647 13.04635,28.15258 13.04635,31.58586 0,3.43327 0,12.35966 0,12.35966 0,0 8.92645,3.43327 11.67304,1.37336 2.74659,-2.05998 5.49318,-2.74666 5.49318,-2.74666 0,0 1.3733,-8.23977 -1.37329,-12.35966 -2.74659,-4.11988 -3.43321,-9.61306 -4.8065,-16.47961 -1.3733,-6.86648 -1.3733,-19.91282 0,-32.27247 1.37329,-12.35973 3.4332,-13.73303 2.05991,-19.22621 -1.3733,-5.49318 -2.7466,-41.199 -2.7466,-41.199 0,0 6.86648,-6.86647 7.55316,-2.74659 0.68662,4.11989 2.74659,13.04634 2.74659,13.04634 0,0 2.7466,-6.86647 8.23978,-12.35973 5.49325,-5.49318 8.23984,-25.40599 8.23984,-25.40599 0,0 -0.68668,-2.74659 -0.68668,-2.74659 L 368.08707,217.38984 361.9072,180.3108 c 0,0 -10.29975,3.4332 -15.79293,5.49318 -5.49318,2.05998 -17.16623,4.80657 -23.34609,6.86648 -6.17986,2.05998 -12.35966,2.05998 -12.35966,2.05998 l -7.55316,9.61306 c -4.11988,7.55316 3.43328,9.61314 6.17987,24.71939 2.74659,15.10632 -4.11996,17.85291 -9.61314,19.2262 -5.49318,1.3733 -10.29975,7.55316 -15.79293,19.22621 -5.49318,11.67304 -7.55316,20.5995 -13.04634,24.71938 -5.49318,4.11989 -12.35966,2.05998 -18.53952,0 -6.17987,-2.05998 -6.86655,-0.68668 -6.86655,-0.68668 0,0 -0.68661,-6.17979 -1.37329,2.05998 -0.68662,8.23977 -6.1798,21.97279 -6.1798,21.97279 z" sodipodi:nodetypes="cccccccccccccccccccccccccccccccccccccc" transform="translate(-115,-13.75)" inkscape:connector-curvature="0"/>
        <g id="g1721" transform="matrix(0.43221,0,0,0.43221,128.5923,-74.87833)">
          <path style="fill:#000000;fill-opacity:1;fill-rule:evenodd;stroke:#000000;stroke-width:1pt;stroke-linecap:butt;stroke-linejoin:miter;stroke-opacity:1" d="m 72.698128,436.22755 c 0,0 30.230902,-39.58809 45.346362,-48.94527 15.11545,-9.35719 43.187,-17.99459 43.187,-17.99459 0,0 28.79134,-0.71978 44.62658,2.87914 15.83523,3.59891 35.26938,14.39567 35.26938,14.39567 0,0 7.19784,-5.75827 12.23632,-7.19784 5.03849,-1.43957 11.51654,-3.59892 11.51654,-3.59892 0,0 2.87913,-43.90679 3.59892,-47.5057 0.71978,-3.59892 0.71978,-38.86831 2.87913,-51.82441 2.15935,-12.9561 7.91762,-33.11004 12.9561,-33.82982 5.03849,-0.71979 17.99459,28.07155 18.71437,35.26939 0.71978,7.19783 11.51654,61.18159 15.11545,70.53877 3.59892,9.35719 8.6374,17.27481 8.6374,17.27481 0,0 23.03307,-5.03849 40.30788,-5.03849 17.2748,0 44.62657,3.59892 44.62657,3.59892 0,0 2.87913,2.15935 7.19784,0.71978 4.3187,-1.43956 5.03848,-2.15935 5.03848,-2.15935 0,0 23.75285,-35.98917 23.75285,-67.65964 0,-31.67047 -12.9561,-81.33553 -12.9561,-81.33553 0,0 -2.87913,-5.75827 0,-6.47805 2.87913,-0.71979 22.31329,10.79675 28.79134,28.07155 6.47805,17.2748 24.47264,45.34636 26.63199,59.02224 2.15935,13.67589 -6.47805,56.8629 -13.67589,64.78051 -7.19783,7.91762 -12.23632,17.99459 -8.6374,20.87372 3.59892,2.87914 9.35718,2.87914 14.39567,-0.71978 5.03848,-3.59892 48.22549,-39.58809 76.29704,-46.78592 28.07156,-7.19784 33.11004,-6.47805 43.18701,-6.47805 10.07697,0 22.31329,8.6374 22.31329,8.6374 0,0 17.99458,2.15935 28.79134,12.9561 10.79675,10.79675 17.2748,20.87372 9.35718,28.79134 -7.91762,7.91762 -20.15394,23.75285 -25.19242,23.75285 -5.03848,0 -4.3187,-1.43957 -4.3187,-1.43957 0,0 -24.47264,20.87372 -51.10463,23.75286 -26.63198,2.87913 -44.62657,3.59891 -59.74202,0.71978 -15.11545,-2.87913 -23.03307,-6.47805 -23.03307,-6.47805 0,0 11.51653,28.79134 12.9561,38.86831 1.43957,10.07696 10.79675,47.5057 11.51654,60.46181 0.71978,12.9561 6.47805,77.01682 6.47805,77.01682 0,0 7.19783,56.8629 10.07696,70.53878 2.87914,13.67589 10.07697,60.46181 5.75827,80.61575 -4.3187,20.15393 -5.03848,29.51112 -10.79675,35.98917 -5.75827,6.47805 -15.83524,15.83524 -23.75285,17.2748 -7.91762,1.43957 -27.35177,0.71979 -41.74744,6.47805 -14.39567,5.75827 -54.70355,28.79134 -68.37943,28.79134 -13.67589,0 -29.51112,-16.55502 -29.51112,-16.55502 0,0 -11.51654,-15.83523 -18.71437,-23.75285 -7.19784,-7.91762 -47.50571,-38.14852 -64.06073,-79.89596 -16.55502,-41.74744 -24.47264,-115.16536 -24.47264,-115.16536 0,0 -4.3187,-71.97834 -12.23631,-98.61033 -7.91762,-26.63198 -19.43416,-58.30246 -19.43416,-58.30246 0,0 -35.98917,32.39026 -82.05531,29.51113 -46.06614,-2.87914 -77.736612,-33.82983 -77.736612,-33.82983 z" id="path1723" inkscape:connector-curvature="0"/>
          <path style="fill:#ffffff;fill-opacity:1;fill-rule:evenodd;stroke:none" d="m 104.3686,437.66712 48.22549,14.39567 c 0,0 40.30787,-15.11545 46.78592,-17.2748 6.47806,-2.15935 9.35719,-5.75827 14.39567,-7.19784 5.03849,-1.43957 14.39567,-4.3187 14.39567,-4.3187 l -0.71978,-10.07697 c 0,0 -11.51654,-2.15935 -27.35177,0 -15.83524,2.15935 -83.49488,17.27481 -89.25315,18.71437 -5.75827,1.43957 -6.47805,5.75827 -6.47805,5.75827 z" id="path1725" inkscape:connector-curvature="0"/>
          <path style="fill:#ffffff;fill-opacity:1;fill-rule:evenodd;stroke:none" d="m 142.51712,396.63946 74.1377,-0.71978 c 0,0 -16.55502,-8.6374 -36.70896,-8.6374 -20.15394,0 -37.42874,9.35718 -37.42874,9.35718 z" id="path1727" inkscape:connector-curvature="0"/>
          <path style="fill:#ffffff;fill-opacity:1;fill-rule:evenodd;stroke:none" d="M 314.54537,369.28769 304.4684,348.41397 c 0,0 -0.71979,-9.35718 -3.59892,-20.87372 -2.87913,-11.51653 -7.19783,-17.99458 -7.19783,-17.99458 0,0 -5.75827,7.91761 -6.47806,14.39567 -0.71978,6.47805 -0.71978,25.19242 -1.43956,29.51112 -0.71979,4.3187 -5.03849,9.35718 -0.71979,14.39567 4.31871,5.03848 7.19784,6.47805 10.79676,6.47805 3.59891,0 12.23631,-4.3187 12.23631,-4.3187 l 6.47806,-0.71979 z" id="path1729" inkscape:connector-curvature="0"/>
          <path style="fill:#ffffff;fill-opacity:1;fill-rule:evenodd;stroke:none" d="m 437.62833,362.08986 c 0,0 13.67589,3.59892 17.27481,0.71978 3.59891,-2.87913 10.79675,-13.67588 10.79675,-13.67588 0,0 2.15935,-22.31329 3.59892,-33.82983 1.43956,-11.51653 2.87913,-18.71437 2.87913,-18.71437 0,0 -2.15935,-6.47805 -3.59892,-11.51653 -1.43956,-5.03848 -5.03848,-12.23632 -5.03848,-12.23632 l -5.03849,-15.11545 c 0,0 1.43957,15.11545 0,20.15394 -1.43956,5.03848 -0.71978,20.15393 -2.15935,28.79133 -1.43956,8.6374 -6.47805,34.54961 -10.07696,39.58809 -3.59892,5.03849 -8.63741,15.83524 -8.63741,15.83524 z" id="path1731" inkscape:connector-curvature="0"/>
          <path style="fill:#ffffff;fill-opacity:1;fill-rule:evenodd;stroke:none" d="m 507.44733,400.95816 c 0,0 2.87913,-10.07696 10.79675,-12.9561 7.91762,-2.87913 38.86831,-7.19783 46.06614,-7.19783 7.19784,0 25.91221,0 25.91221,0 0,0 5.75826,-5.03849 14.39566,-5.03849 8.63741,0 20.87372,0 20.87372,0 0,0 -7.91761,9.35719 -12.9561,12.23632 -5.03848,2.87914 -13.67588,3.59892 -17.2748,7.19784 -3.59892,3.59891 -19.43415,10.79675 -35.26939,12.23632 -15.83524,1.43956 -39.58809,0.71978 -39.58809,0.71978 l -12.9561,-7.19784 z" id="path1733" inkscape:connector-curvature="0"/>
          <path style="fill:#ffffff;fill-opacity:1;fill-rule:evenodd;stroke:none" d="m 519.68365,376.48553 c 0,0 21.5935,-10.79675 41.02765,-12.9561 19.43416,-2.15936 57.58268,-3.59892 57.58268,-3.59892 0,0 -8.6374,-12.9561 -37.42874,-10.07697 -28.79134,2.87913 -45.34636,9.35718 -51.82441,14.39567 -6.47805,5.03848 -9.35718,12.23632 -9.35718,12.23632 z" id="path1735" inkscape:connector-curvature="0"/>
          <path style="fill:#ffffff;fill-opacity:1;fill-rule:evenodd;stroke:none" d="m 351.25432,763.72902 c 0,0 24.47264,-36.70895 68.37943,-52.54419 43.90679,-15.83524 91.4125,-9.35719 91.4125,-9.35719 0,0 2.15935,-13.67588 -0.71979,-23.75285 -2.87913,-10.07697 -2.87913,-10.07697 -2.87913,-10.07697 l -2.15935,-4.3187 c 0,0 0,-23.75285 -2.15935,-36.70895 -2.15935,-12.95611 -15.83524,-95.01142 -15.83524,-95.01142 0,0 0.71979,-26.63199 -2.15935,-37.42874 -2.87913,-10.79675 -10.79675,-35.26939 -10.79675,-40.30787 0,-5.03848 2.15935,-8.6374 2.15935,-8.6374 0,0 -3.59892,-12.9561 -5.75827,-18.71437 -2.15935,-5.75827 -3.59891,-10.79675 -3.59891,-10.79675 0,0 -32.39026,-25.91221 -60.46181,-30.95069 -28.07156,-5.03849 -59.02225,0 -68.37943,0 -9.35719,0 -50.38484,9.35718 -55.42333,9.35718 -5.03848,0 -32.39025,3.59892 -33.82982,15.11546 -1.43956,11.51653 17.2748,44.62657 17.2748,44.62657 0,0 5.03849,24.47264 7.91762,31.67047 2.87914,7.19784 10.79675,42.46722 12.23632,61.90138 1.43957,19.43415 9.35719,102.20925 12.9561,116.60492 3.59892,14.39566 7.91762,41.02765 16.55502,56.1431 8.6374,15.11546 17.99459,28.79134 23.03307,33.11004 5.03849,4.3187 12.23632,10.07697 12.23632,10.07697 z" id="path1737" inkscape:connector-curvature="0"/>
          <path style="fill:#000000;fill-opacity:1;fill-rule:evenodd;stroke:#000000;stroke-width:1pt;stroke-linecap:butt;stroke-linejoin:miter;stroke-opacity:1" d="m 340.45757,516.12352 c 0,0 -14.39567,-2.15935 -25.19242,8.6374 -10.79675,10.79675 -13.67589,13.67588 -11.51654,20.15393 2.15935,6.47805 2.15935,10.79676 6.47806,13.67589 4.3187,2.87913 8.6374,7.19783 12.9561,7.19783 4.3187,0 19.43415,-9.35718 24.47263,-12.23632 5.03849,-2.87913 12.23632,-11.51653 9.35719,-17.2748 -2.87913,-5.75827 -3.59892,-12.9561 -7.91762,-15.83523 -4.3187,-2.87914 -4.3187,-2.87914 -8.6374,-4.3187 z" id="path1739" inkscape:connector-curvature="0"/>
          <path style="fill:#000000;fill-opacity:1;fill-rule:evenodd;stroke:#000000;stroke-width:1pt;stroke-linecap:butt;stroke-linejoin:miter;stroke-opacity:1" d="m 423.23267,494.53001 c 10.79675,1.43957 14.39566,-1.43956 15.83523,-5.75827 1.43957,-4.3187 4.3187,-17.2748 -8.6374,-17.2748 -12.9561,0 -15.83524,4.3187 -15.83524,10.79675 0,6.47805 2.87914,10.07697 8.63741,12.23632 z" id="path1741" inkscape:connector-curvature="0"/>
        </g>
        <path id="path1743" style="fill:#000000;fill-opacity:1;fill-rule:evenodd;stroke:#000000;stroke-width:0.88749999;stroke-linecap:butt;stroke-linejoin:miter;stroke-miterlimit:4;stroke-opacity:1" d="m 138.76971,342.81301 3.76677,7.76985 c 0,0 3.43327,10.29975 6.17986,15.793 2.74659,5.49318 4.11989,19.22613 5.49318,21.97273 1.3733,2.74666 -4.80656,2.74666 -4.80656,2.74666 l -1.3733,-5.49326 -1.37329,6.17987 c 0,0 -4.11989,2.74659 -8.23978,2.05998 -4.11988,-0.68669 -13.73302,-0.68669 -14.41963,-3.43328 -0.68668,-2.74659 4.11988,-12.35965 4.11988,-12.35965 l 2.74659,-8.23985 -2.74659,-4.11988 -5.81705,-20.28964 c -0.32387,-0.37683 -2.19079,-4.15751 -6.71632,-9.42093 -3.74192,-4.35206 -6.62913,-7.53522 -11.00413,-9.41022 l 3.69639,-6.29441 9.28077,-11.93243 28.28427,0.88388 c 0,0 -0.44194,5.74525 -1.76776,11.93243 -1.32583,6.18718 -8.83884,11.93243 -8.83884,11.93243 l 3.53554,9.72272 z" sodipodi:nodetypes="ccccccccccccccccccccc" inkscape:connector-curvature="0"/>
      </g>
    </g>
  </g>
  <g inkscape:groupmode="layer" id="layer2" inkscape:label="text" transform="translate(0,2.992126)">
    <g style="font-size:545.71710204999999405px;font-style:normal;font-variant:normal;font-weight:bold;font-stretch:normal;line-height:100%;writing-mode:lr-tb;text-anchor:start;fill:#ffffff;fill-opacity:1;stroke:none;font-family:Zurich LtXCn BT;-inkscape-font-specification:Zurich LtXCn BT Bold" id="text6886">
      <path d="m 1142.1634,601.60725 c -10e-5,-15.6323 -1.6877,-26.55728 -5.0628,-32.775 -3.1977,-6.39487 -8.7934,-9.59243 -16.7872,-9.59269 -7.994,2.6e-4 -13.7673,3.10899 -17.3201,9.32622 -3.3753,6.21772 -5.0629,17.23153 -5.0628,33.04147 l 0,134.83049 c -10e-5,16.16551 1.6875,27.35697 5.0628,33.5744 3.3751,6.03987 9.1485,9.05979 17.3201,9.05975 7.6385,4e-5 13.2343,-3.19752 16.7872,-9.59268 3.3751,-6.75036 5.0627,-17.76417 5.0628,-33.04147 l 0,-134.83049 m 0,-46.36464 2.6646,-16.78719 30.6433,0 0,303.50184 c -10e-5,30.19913 -4.0859,50.71679 -12.2573,61.55305 -8.1716,10.83608 -22.6495,16.25417 -43.4335,16.25427 -19.5407,-10e-5 -33.7521,-5.32937 -42.6342,-15.9878 -8.7045,-10.48098 -13.0567,-28.42283 -13.0567,-53.82561 l 0,-14.65549 34.3738,0 0,14.65549 c -1e-4,16.87596 1.5099,28.06741 4.5299,33.57439 3.1975,5.68447 8.7932,8.52675 16.7872,8.52683 7.9938,-8e-5 13.6783,-3.10882 17.0536,-9.32622 3.5528,-6.21755 5.3292,-17.14254 5.3293,-32.775 l 0,-66.61586 c -4.2635,7.63864 -9.6816,13.41201 -16.2543,17.32012 -6.5728,3.7305 -14.4779,5.59574 -23.7152,5.59573 -13.8562,10e-6 -23.7153,-4.52986 -29.5775,-13.58963 -5.6845,-9.23737 -8.5268,-25.4028 -8.5268,-48.49635 l 0,-149.48598 c 0,-23.09326 2.9311,-39.34751 8.7933,-48.76281 5.8622,-9.41476 15.6325,-14.12228 29.311,-14.12256 4.6186,2.8e-4 8.7044,0.44439 12.2573,1.33232 3.5528,0.88849 7.1944,2.48727 10.925,4.79634 6.7503,3.73076 12.346,9.50413 16.7872,17.32012" style="fill:#ffffff;fill-opacity:1" id="path6937"/>
      <path d="m 1336.4152,609.86762 0,81.27134 -77.5408,0 0,57.82257 c -10e-5,15.98785 1.5987,27.00166 4.7963,33.04146 3.1975,6.03986 8.8821,9.05978 17.0537,9.05976 7.6385,2e-5 13.0566,-2.93108 16.2543,-8.7933 3.3751,-6.0398 5.0627,-17.14243 5.0628,-33.30792 l 0,-30.37684 34.3737,0 0,22.38293 c -10e-5,30.19923 -4.0859,50.80572 -12.2573,61.81952 -8.1716,10.83618 -22.6495,16.25426 -43.4335,16.25427 -20.6066,-1e-5 -35.0844,-5.59574 -43.4336,-16.7872 -8.1715,-11.19144 -12.2573,-31.79793 -12.2573,-61.81951 l 0,-130.56708 c 0,-30.19896 3.997,-50.71662 11.9909,-61.55306 8.1715,-11.01354 22.7381,-16.52045 43.7,-16.52073 20.4287,2.8e-4 34.8178,5.59601 43.1671,16.7872 8.349,11.01407 12.5236,31.44291 12.5237,61.28659 m -34.3737,-8.26037 c -10e-5,-15.80994 -1.5989,-26.73493 -4.7964,-32.775 -3.1976,-6.03959 -8.7045,-9.05951 -16.5207,-9.05976 -7.994,2.5e-4 -13.6785,3.10899 -17.0537,9.32622 -3.1976,6.21772 -4.7964,17.05389 -4.7963,32.50854 l 0,61.81952 43.1671,0 0,-61.81952" style="fill:#ffffff;fill-opacity:1" id="path6939"/>
      <path d="m 1497.3591,594.6792 0,217.70062 -32.775,0 0,-210.77257 c -10e-5,-15.6323 -1.7765,-26.46846 -5.3292,-32.50854 -3.1977,-6.21723 -9.0599,-9.32597 -17.5866,-9.32622 -7.994,2.5e-4 -13.8562,3.19781 -17.5866,9.59268 -3.5529,6.21772 -5.3293,16.96507 -5.3293,32.24208 l 0,210.77257 -32.775,0 0,-273.9244 30.6433,0 2.1317,16.78719 c 4.0857,-7.10542 9.6815,-12.87879 16.7872,-17.32012 7.1056,-4.08549 15.0107,-6.12838 23.7153,-6.12866 13.856,2.8e-4 23.6263,4.61898 29.311,13.8561 5.862,9.23766 8.7931,25.58073 8.7932,49.02927" style="fill:#ffffff;fill-opacity:1" id="path6941"/>
      <path d="m 1582.361,464.64505 0,73.81037 25.0475,0 0,27.71219 -25.0475,0 0,203.57806 c -1e-4,7.63866 1.4211,12.96792 4.2634,15.98781 3.1975,2.8423 8.5268,4.26344 15.9878,4.26341 l 4.7963,0 0,28.51159 -6.1286,0.26646 -8.5268,0.26647 c -16.3432,-1e-5 -27.6235,-3.99696 -33.8409,-11.99086 -6.2175,-8.17153 -9.3262,-26.2022 -9.3262,-54.09207 l 0,-186.79087 -17.8531,0 0,-27.71219 17.8531,0 0,-60.4872 32.775,-13.32317" style="fill:#ffffff;fill-opacity:1" id="path6943"/>
      <path d="m 1751.0323,609.86762 0,131.1 c -10e-5,30.19923 -4.0859,50.80572 -12.2573,61.81952 -8.1717,10.83618 -22.6495,16.25426 -43.4336,16.25427 -20.6065,-1e-5 -35.0843,-5.59574 -43.4335,-16.7872 -8.1716,-11.19144 -12.2573,-31.79793 -12.2573,-61.81951 l 0,-130.56708 c 0,-30.19896 3.9969,-50.71662 11.9908,-61.55306 8.1715,-11.01354 22.7382,-16.52045 43.7,-16.52073 20.4288,2.8e-4 34.8178,5.59601 43.1671,16.7872 8.3491,11.01407 12.5237,31.44291 12.5238,61.28659 m -34.3738,-8.26037 c -10e-5,-15.80994 -1.5989,-26.73493 -4.7963,-32.775 -3.1977,-6.03959 -8.7046,-9.05951 -16.5208,-9.05976 -7.9939,2.5e-4 -13.6785,3.10899 -17.0536,9.32622 -3.1976,6.21772 -4.7964,17.05389 -4.7964,32.50854 l 0,147.35428 c 0,15.98785 1.5988,27.00166 4.7964,33.04146 3.1975,6.03986 8.882,9.05978 17.0536,9.05976 7.6386,2e-5 13.0567,-2.93108 16.2543,-8.7933 3.3751,-6.0398 5.0627,-17.14243 5.0628,-33.30792 l 0,-147.35428" style="fill:#ffffff;fill-opacity:1" id="path6945"/>
      <path d="m 1910.9104,609.86762 0,131.1 c -2e-4,30.19923 -4.0859,50.80572 -12.2574,61.81952 -8.1716,10.83618 -22.6495,16.25426 -43.4335,16.25427 -20.6066,-1e-5 -35.0844,-5.59574 -43.4335,-16.7872 -8.1716,-11.19144 -12.2574,-31.79793 -12.2574,-61.81951 l 0,-130.56708 c 0,-30.19896 3.997,-50.71662 11.9909,-61.55306 8.1715,-11.01354 22.7382,-16.52045 43.7,-16.52073 20.4288,2.8e-4 34.8178,5.59601 43.1671,16.7872 8.349,11.01407 12.5236,31.44291 12.5238,61.28659 m -34.3738,-8.26037 c -10e-5,-15.80994 -1.5989,-26.73493 -4.7964,-32.775 -3.1976,-6.03959 -8.7045,-9.05951 -16.5207,-9.05976 -7.994,2.5e-4 -13.6785,3.10899 -17.0537,9.32622 -3.1976,6.21772 -4.7964,17.05389 -4.7963,32.50854 l 0,147.35428 c -10e-5,15.98785 1.5987,27.00166 4.7963,33.04146 3.1975,6.03986 8.8821,9.05978 17.0537,9.05976 7.6385,2e-5 13.0566,-2.93108 16.2543,-8.7933 3.3751,-6.0398 5.0627,-17.14243 5.0628,-33.30792 l 0,-147.35428" style="fill:#ffffff;fill-opacity:1" id="path6947"/>
    </g>
    <text xml:space="preserve" style="font-size:16px;font-style:normal;font-weight:normal;line-height:125%;letter-spacing:0px;word-spacing:0px;fill:#000000;fill-opacity:1;stroke:none;font-family:Sans" x="-1789.4412" y="-883.40649" id="text3886" sodipodi:linespacing="125%" transform="translate(0,-2.992126)"><tspan sodipodi:role="line" id="tspan3888" x="-1789.4412" y="-883.40649"/></text>
    <text xml:space="preserve" style="font-size:110px;font-style:normal;font-variant:normal;font-weight:normal;font-stretch:normal;text-align:center;line-height:125%;letter-spacing:0px;word-spacing:0px;text-anchor:middle;fill:#000000;fill-opacity:1;stroke:none;font-family:Expressway;-inkscape-font-specification:Expressway" x="1498.4155" y="3685.8872" id="text3890" sodipodi:linespacing="125%"><tspan sodipodi:role="line" id="tspan3892" x="1515.9253" y="3685.8872" style="font-size:110px;font-style:normal;font-variant:normal;font-weight:normal;font-stretch:normal;text-align:center;text-anchor:middle;fill:#ffffff;fill-opacity:1;font-family:Expressway;-inkscape-font-specification:Expressway">Alpha, arm4,5,6,7, AArch64, HPPA, IA64, m68k, MIPS, </tspan><tspan sodipodi:role="line" x="1498.4155" y="3823.3872" style="font-size:110px;font-style:normal;font-variant:normal;font-weight:normal;font-stretch:normal;text-align:center;text-anchor:middle;fill:#ffffff;fill-opacity:1;font-family:Expressway;-inkscape-font-specification:Expressway" id="tspan3122">PowerPC, S390, SuperH, Sparc, x86, x86_64</tspan><tspan sodipodi:role="line" x="1498.4155" y="3960.8872" style="font-size:110px;font-style:normal;font-variant:normal;font-weight:normal;font-stretch:normal;text-align:center;text-anchor:middle;fill:#ffffff;fill-opacity:1;font-family:Expressway;-inkscape-font-specification:Expressway" id="tspan3124"/></text>
    <text xml:space="preserve" style="font-size:144px;font-style:normal;font-variant:normal;font-weight:normal;font-stretch:normal;line-height:125%;letter-spacing:0px;word-spacing:0px;fill:#ffffff;fill-opacity:1;stroke:none;font-family:Expressway;-inkscape-font-specification:Expressway" x="984.18262" y="4037.3364" id="text3894" sodipodi:linespacing="125%"><tspan sodipodi:role="line" id="tspan3896" x="984.18262" y="4037.3364">Choice included.</tspan></text>
  </g>
</svg>